<?xml version="1.0" encoding="UTF-8"?><svg xmlns="http://www.w3.org/2000/svg" viewBox="0 0 1279.5 302"><defs><style>.cls-1{stroke-width:0px;}.cls-2{fill:none;stroke:#000;stroke-miterlimit:10;stroke-width:8px;}</style></defs><g id="Layer_2"><rect class="cls-2" x="552" y="77.5" width="195" height="197"/><path class="cls-2" d="m656.35,254.18c-23.16,0-44.73-12.2-56.31-32.85l27.91-15.65c8.62,15.36,24.57,18.08,35.62,15.74,5.03-1.07,21.6-6.12,23.49-26.4l31.86,2.98c-2.57,27.52-21.7,49-48.72,54.73-4.64.98-9.28,1.46-13.86,1.46Z"/><line class="cls-2" x1="616" y1="240.5" x2="637" y2="216.5"/><line class="cls-2" x1="642" y1="252.5" x2="649" y2="221.5"/><line class="cls-2" x1="683" y1="207.5" x2="713" y2="218.5"/><line class="cls-2" x1="673" y1="217.5" x2="695" y2="241.5"/><line class="cls-2" x1="661" y1="221.5" x2="670" y2="252.5"/><circle class="cls-2" cx="619.5" cy="154" r="28.5"/><circle class="cls-2" cx="676.5" cy="154" r="28.5"/><circle class="cls-1" cx="614.5" cy="150" r="9.5"/><circle class="cls-1" cx="683.5" cy="158" r="9.5"/><rect class="cls-2" x="521" y="156.5" width="31" height="40"/><rect class="cls-2" x="747" y="153.5" width="31" height="40"/><path class="cls-2" d="m536,153.5c.44-39.08,1.71-66.94,2-79,0-.23.13-13.31-1-20-1.58-9.39-3-14-10-14-6.19,0-14,5.22-14,11,0,10,7,12,12,12,17.87,0,33.19-.26,48-9,5.48-3.24,14.73-8.7,14-16-.59-5.88-7.49-11.45-14-11-6.97.49-13.34,7.88-13,14,.76,13.77,35.99,30.28,61,20,1.88-.77,19.5-8.02,19-20-.33-7.98-8.62-16.27-17-16-7.14.23-14.92,6.69-15,13-.19,14.55,40.51,34.64,71,24,4.12-1.44,20.51-7.16,21-18,.42-9.17-10.65-19.7-20-18-6.18,1.12-12.28,7.7-12,14,.64,14.58,35.62,32,62,23,2.16-.74,20.72-7.07,21-19,.17-7.24-6.43-15.45-14-16-8.57-.62-17.48,8.62-17,16,.94,14.48,35.14,29.95,59,22,3-1,11-4,11-11,0-8.27-6-12-12-12-8.06,0-14,11-15,20-1.11,9.99-1,13.37-1,14v73"/></g><g id="Layer_3"><path class="cls-1" d="m68.21,269.69h-33.21l1.98-57.86,4.35-131.07h55.16l22.14,130.05,21.15-130.56,51.6,1.02.79,55.81,1.58,131.07h-35.19v-134.14c0-.85-.1-1.7-.3-2.56-.2-.85-.63-1.28-1.28-1.28s-1.12.3-1.38.9c-.27.6-.46,1.32-.59,2.18,0,.17-.03.38-.1.64-.07.26-.1.47-.1.64l-.2.51-23.13,131.07h-36.97l-22.93-122.62c0-.34-.03-.68-.1-1.02-.07-.34-.17-.68-.3-1.02-.13-.68-.3-1.32-.49-1.92-.2-.6-.49-.9-.89-.9h-.4c-.4.17-.69.56-.89,1.15-.2.6-.3,1.15-.3,1.66v128.26Z"/><path class="cls-1" d="m310.79,114.33l29.66,131.07h-48.44l-10.28-41.98h-34.8l-7.12,42.5h-37.17l14.83-59.39,32.62-131.07h47.05l13.64,58.88Zm-58.12,52.74h31.24l-15.03-76.8-16.21,76.8Z"/><path class="cls-1" d="m349.54,81.01l64.25-1.54c18.85-.34,35.19,6.78,49.03,21.38,13.84,14.59,21.22,36.06,22.14,64.38,1.32,34.65-5.24,60.72-19.67,78.21-14.43,17.5-32.19,25.9-53.28,25.22l-61.48-1.79,1.58-83.71-2.57-102.14Zm42.9,40.96v105.47l44.68-1.02v-100.86l-44.68-3.58Z"/><path class="cls-1" d="m914.22,124.78v-30.98l-48.53-1.54,1.65,116.74h53.7l1.24-27.14h-27.88v-33.79l71.04,3.07-1.24,90.37-29.33,2.05-4.96-14.85c-1.65,2.22-3.2,4.27-4.65,6.14-1.45,1.88-2.86,3.67-4.23,5.38-3.58,4.1-7.57,7.21-11.98,9.34-4.41,2.13-11.22,3.28-20.45,3.46-21.2.34-38.35-7.76-51.42-24.32-13.08-16.55-19.83-42.41-20.24-77.57-.28-27.65,5.4-51.67,17.04-72.06,11.63-20.39,31.01-30.59,58.14-30.59,19,0,33.39,3.97,43.16,11.9,9.77,7.94,16.73,16.6,20.86,25.98,3.58,8.36,5.64,16.17,6.2,23.42.55,7.26.76,11.82.62,13.7v.77l-48.74.51Z"/><path class="cls-1" d="m1025.95,203.33l.41,67.33h-45.44l1.24-81.15-1.65-109.06h72.08c14.32,0,27.29,4.65,38.93,13.95,11.63,9.3,17.52,23.85,17.66,43.65.14,20.65-5.06,36.52-15.59,47.62-10.53,11.1-23.03,16.73-37.48,16.9l-30.15.77Zm40.27-35.58v-47.62l-51.01-3.84-1.45,52.22,52.46-.77Z"/><path class="cls-1" d="m1203.76,94.06v121.86l1.65,33.79-46.26-2.56c0-2.39.03-4.61.1-6.66.07-2.05.17-4.1.31-6.14,0-2.05.03-4.1.1-6.14.07-2.05.1-4.26.1-6.66,0-1.7.03-3.24.1-4.61.07-1.36.17-2.73.31-4.1v-1.79c.14-1.7.24-3.46.31-5.25.07-1.79.1-3.79.1-6.02v-92.16h-44.2l1.24-52.74c6.2.68,11.91,1.24,17.14,1.66,5.23.43,10.33.73,15.28.9,5.09.34,10.26.56,15.49.64,5.23.09,11.08.13,17.55.13,5.78,0,11.08-.04,15.9-.13,4.82-.08,9.5-.3,14.04-.64,4.54-.17,9.22-.47,14.04-.9,4.82-.42,10.12-.9,15.9-1.41l-1.65,43.01-37.59-4.1Z"/></g></svg>